<mxfile host="65bd71144e">
    <diagram id="cUEVkR9wokYXPuSlzWbq" name="Page-1">
        <mxGraphModel dx="36" dy="1687" grid="1" gridSize="10" guides="1" tooltips="1" connect="1" arrows="1" fold="1" page="1" pageScale="1" pageWidth="827" pageHeight="1169" math="0" shadow="0">
            <root>
                <mxCell id="0"/>
                <mxCell id="1" parent="0"/>
                <mxCell id="2" value="BASE&lt;br&gt;NODE" style="rounded=0;whiteSpace=wrap;html=1;" parent="1" vertex="1">
                    <mxGeometry x="20" y="-1150" width="100" height="60" as="geometry"/>
                </mxCell>
                <mxCell id="3" value="WEB&lt;br&gt;SOCKET" style="shape=document;whiteSpace=wrap;html=1;boundedLbl=1;" parent="1" vertex="1">
                    <mxGeometry x="90" y="-1020" width="70" height="70" as="geometry"/>
                </mxCell>
                <mxCell id="4" value="Serverless" style="shape=document;whiteSpace=wrap;html=1;boundedLbl=1;" parent="1" vertex="1">
                    <mxGeometry x="250" y="-1169" width="90" height="60" as="geometry"/>
                </mxCell>
                <mxCell id="5" value="API REST" style="shape=document;whiteSpace=wrap;html=1;boundedLbl=1;" parent="1" vertex="1">
                    <mxGeometry x="10" y="-1020" width="70" height="70" as="geometry"/>
                </mxCell>
                <mxCell id="6" value="Stream" style="shape=document;whiteSpace=wrap;html=1;boundedLbl=1;" parent="1" vertex="1">
                    <mxGeometry x="280" y="-1109" width="90" height="60" as="geometry"/>
                </mxCell>
                <mxCell id="15" value="" style="endArrow=classic;html=1;entryX=0.5;entryY=0;entryDx=0;entryDy=0;" parent="1" source="2" target="5" edge="1">
                    <mxGeometry width="50" height="50" relative="1" as="geometry">
                        <mxPoint x="50" y="-1040" as="sourcePoint"/>
                        <mxPoint x="100" y="-1050" as="targetPoint"/>
                        <Array as="points"/>
                    </mxGeometry>
                </mxCell>
                <mxCell id="17" value="" style="endArrow=classic;html=1;entryX=0.398;entryY=-0.034;entryDx=0;entryDy=0;entryPerimeter=0;" parent="1" target="3" edge="1">
                    <mxGeometry width="50" height="50" relative="1" as="geometry">
                        <mxPoint x="65.5" y="-1090" as="sourcePoint"/>
                        <mxPoint x="55" y="-1020" as="targetPoint"/>
                        <Array as="points"/>
                    </mxGeometry>
                </mxCell>
                <mxCell id="18" value="" style="endArrow=classic;html=1;" parent="1" source="2" target="6" edge="1">
                    <mxGeometry width="50" height="50" relative="1" as="geometry">
                        <mxPoint x="75.5" y="-1080" as="sourcePoint"/>
                        <mxPoint x="165.81999999999994" y="-1012.04" as="targetPoint"/>
                        <Array as="points"/>
                    </mxGeometry>
                </mxCell>
                <mxCell id="19" value="" style="endArrow=classic;html=1;entryX=0;entryY=0.25;entryDx=0;entryDy=0;exitX=0.995;exitY=0.676;exitDx=0;exitDy=0;exitPerimeter=0;" parent="1" source="2" target="4" edge="1">
                    <mxGeometry width="50" height="50" relative="1" as="geometry">
                        <mxPoint x="85.5" y="-1070" as="sourcePoint"/>
                        <mxPoint x="175.81999999999994" y="-1002.04" as="targetPoint"/>
                        <Array as="points"/>
                    </mxGeometry>
                </mxCell>
                <mxCell id="20" value="Frameworks" style="rounded=1;whiteSpace=wrap;html=1;" parent="1" vertex="1">
                    <mxGeometry x="230" y="-1000" width="120" height="60" as="geometry"/>
                </mxCell>
                <mxCell id="22" value="" style="endArrow=classic;html=1;exitX=1;exitY=1;exitDx=0;exitDy=0;" parent="1" source="2" target="20" edge="1">
                    <mxGeometry width="50" height="50" relative="1" as="geometry">
                        <mxPoint x="570" y="-1040" as="sourcePoint"/>
                        <mxPoint x="620" y="-1090" as="targetPoint"/>
                    </mxGeometry>
                </mxCell>
                <mxCell id="27" value="" style="endArrow=classic;html=1;" parent="1" edge="1">
                    <mxGeometry width="50" height="50" relative="1" as="geometry">
                        <mxPoint x="350" y="-950" as="sourcePoint"/>
                        <mxPoint x="430" y="-1000" as="targetPoint"/>
                    </mxGeometry>
                </mxCell>
                <mxCell id="28" value="" style="endArrow=classic;html=1;exitX=0.993;exitY=0.843;exitDx=0;exitDy=0;exitPerimeter=0;" parent="1" source="20" edge="1">
                    <mxGeometry width="50" height="50" relative="1" as="geometry">
                        <mxPoint x="360" y="-960" as="sourcePoint"/>
                        <mxPoint x="440" y="-970" as="targetPoint"/>
                    </mxGeometry>
                </mxCell>
                <mxCell id="29" value="" style="endArrow=classic;html=1;" parent="1" edge="1">
                    <mxGeometry width="50" height="50" relative="1" as="geometry">
                        <mxPoint x="350" y="-950" as="sourcePoint"/>
                        <mxPoint x="440" y="-930" as="targetPoint"/>
                        <Array as="points">
                            <mxPoint x="400" y="-940"/>
                        </Array>
                    </mxGeometry>
                </mxCell>
                <mxCell id="30" value="" style="whiteSpace=wrap;html=1;aspect=fixed;" parent="1" vertex="1">
                    <mxGeometry x="460" y="-1010" width="80" height="80" as="geometry"/>
                </mxCell>
            </root>
        </mxGraphModel>
    </diagram>
</mxfile>